<svg width="34" height="34" viewBox="0 0 34 34" fill="none" xmlns="http://www.w3.org/2000/svg">
<path fill-rule="evenodd" clip-rule="evenodd" d="M15.2646 0.0458369C13.1643 0.23529 11.013 0.839651 9.20768 1.74733C8.62532 2.04017 7.44427 2.75222 7.02825 3.06133C6.17884 3.69245 5.94219 3.88737 5.30527 4.48015C-0.107098 9.51752 -1.54909 17.524 1.77155 24.1011C2.15814 24.8668 2.61992 25.6261 3.2166 26.4774C3.57799 26.993 4.20443 27.7115 4.89408 28.4015C6.84987 30.3583 9.01628 31.6788 11.668 32.5304C12.4113 32.7691 13.5999 33.0515 13.8653 33.0523L14.0443 33.0529V27.2587V21.4644H11.9284H9.81256V19.0555V16.6467H11.9284H14.0443L14.0444 14.3192C14.0445 11.8793 14.0848 11.3955 14.3609 10.5138C14.7747 9.19226 15.4994 8.19304 16.5396 7.50957C17.2213 7.06166 17.8781 6.79499 18.7335 6.61882C19.3464 6.49258 19.5604 6.48145 20.8477 6.50905C22.0445 6.5347 23.6697 6.67722 23.989 6.78451C24.0518 6.8056 24.0704 7.27852 24.0704 8.85515V10.8984L22.6869 10.935C20.8968 10.9824 20.5906 11.0646 19.9999 11.6564C19.6841 11.9728 19.5691 12.1456 19.4516 12.48C19.314 12.8719 19.3005 13.0414 19.2696 14.7749L19.2361 16.6467H21.5556C23.6551 16.6467 23.8751 16.6567 23.8751 16.7527C23.8751 16.8576 23.2528 20.9397 23.1841 21.2854L23.1486 21.4644H21.2007H19.2527V27.2587C19.2527 32.8966 19.256 33.0529 19.3757 33.0529C19.6399 33.0529 20.6145 32.8372 21.3296 32.6204C24.0999 31.7807 26.3852 30.4171 28.402 28.4002C31.0369 25.7654 32.6168 22.587 33.1604 18.8277C33.3157 17.7536 33.3157 15.5397 33.1604 14.4657C32.7116 11.3619 31.5242 8.58978 29.6327 6.23002C28.8681 5.27611 27.3525 3.82696 26.4792 3.21478C24.5015 1.82845 22.8594 1.05599 20.7051 0.498376C19.1613 0.0987668 16.8286 -0.0952439 15.2646 0.0458369Z" fill="#1878F3"/>
</svg>
