<svg width="32" height="33" viewBox="0 0 32 33" fill="none" xmlns="http://www.w3.org/2000/svg">
<path d="M15.0857 0.0274832C11.9614 0.20597 8.97133 1.29268 6.43517 3.1714C5.28714 4.02182 4.02543 5.28353 3.175 6.43156C2.55582 7.26742 2.02436 8.15207 1.58314 9.07278L7.06577 13.1168C7.2036 12.7057 7.37478 12.2938 7.58207 11.8692C8.49015 10.0091 10.0072 8.49236 11.8728 7.57914C13.2612 6.89958 14.5105 6.60888 16.0428 6.60888C16.8305 6.60888 17.1872 6.64392 17.9529 6.79643C19.258 7.05633 20.6855 7.71545 21.7482 8.54882C21.8596 8.63615 21.9596 8.70762 21.9705 8.70762C21.9813 8.70762 23.0434 7.65441 24.3305 6.36713C25.7311 4.96648 26.6575 4.01509 26.6376 3.99793C24.9429 2.53778 23.1132 1.48747 21.0848 0.810403C19.1748 0.172884 17.1548 -0.0907443 15.0857 0.0274832Z" fill="#EA4335"/>
<path fill-rule="evenodd" clip-rule="evenodd" d="M1.58314 23.0473L7.19543 19.3569C7.55047 20.2933 8.07869 21.2281 8.69793 22.0035C8.99608 22.3768 9.73928 23.12 10.1126 23.4182C11.0776 24.1888 12.2777 24.8133 13.4324 25.1456C14.3435 25.4077 15.081 25.5055 16.1282 25.5031C17.0229 25.5011 17.5814 25.4472 18.3842 25.2856C19.9381 24.9728 21.2684 24.3305 22.3089 23.4182L27.2842 27.3564C26.3569 28.3583 25.287 29.2283 24.0921 29.9424C23.4977 30.2977 22.3997 30.8317 21.7678 31.0728C18.0743 32.4821 13.7879 32.4522 10.1245 30.9916C6.32228 29.4757 3.30257 26.631 1.58314 23.0473Z" fill="#34A853"/>
<path d="M6.97056 18.6837C6.71793 17.8058 6.61061 17.0223 6.61061 16.0563C6.61061 14.9872 6.75147 14.0542 7.06577 13.1168L1.58314 9.07278C-0.0340658 12.4474 -0.43906 16.3064 0.491968 20.0226C0.755946 21.0762 1.12298 22.0882 1.58314 23.0473L7.19543 19.3569C7.11009 19.1319 7.03475 18.9067 6.97056 18.6837Z" fill="#FBBC05"/>
<path d="M30.8417 20.6591C31.2114 19.1567 31.3719 17.809 31.3722 16.2051C31.3724 15.143 31.3142 14.5475 31.1125 13.5479C31.0674 13.3244 31.0306 13.136 31.0306 13.1292C31.0306 13.1224 27.6622 13.1168 23.5452 13.1168H16.0599V16.2271V19.3375H20.3494C22.7087 19.3375 24.639 19.3463 24.639 19.3569C24.639 19.3676 24.6002 19.5293 24.5528 19.7162C24.1761 21.2022 23.4026 22.4593 22.3089 23.4182L27.2842 27.3564C28.9857 25.5184 30.2074 23.2365 30.8417 20.6591Z" fill="#4285F4"/>
</svg>
